<?xml version="1.0" encoding="UTF-8" standalone="no"?>
<svg xmlns="http://www.w3.org/2000/svg" width="200" height="60" viewBox="0 0 200 60">
  <style>
    .logo-text { font-family: 'Arial', sans-serif; font-weight: bold; }
    .primary { fill: #353a45; }
    .secondary { fill: #d15e2b; }
    .logo-icon { fill: #d15e2b; }
  </style>
  <g transform="translate(10,10)">
    <path class="logo-icon" d="M25,0 C11.215,0 0,11.215 0,25 C0,38.785 11.215,50 25,50 C38.785,50 50,38.785 50,25 C50,11.215 38.785,0 25,0 Z M25,45 C13.972,45 5,36.028 5,25 C5,13.972 13.972,5 25,5 C36.028,5 45,13.972 45,25 C45,36.028 36.028,45 25,45 Z"/>
    <path class="logo-icon" d="M25,10 C16.729,10 10,16.729 10,25 C10,33.271 16.729,40 25,40 C33.271,40 40,33.271 40,25 C40,16.729 33.271,10 25,10 Z M25,35 C19.48,35 15,30.52 15,25 C15,19.48 19.48,15 25,15 C30.52,15 35,19.48 35,25 C35,30.52 30.52,35 25,35 Z"/>
    <path class="logo-icon" d="M25,20 C22.239,20 20,22.239 20,25 C20,27.761 22.239,30 25,30 C27.761,30 30,27.761 30,25 C30,22.239 27.761,20 25,20 Z"/>

    <text x="60" y="35" class="logo-text primary" font-size="22">سوق</text>
    <text x="100" y="35" class="logo-text secondary" font-size="22">الحلال</text>
  </g>
</svg>
